<?xml version="1.0" standalone="no"?>
<!DOCTYPE svg PUBLIC "-//W3C//DTD SVG 1.1//EN" "http://www.w3.org/Graphics/SVG/1.1/DTD/svg11.dtd">
<svg width="410" height="230" version="1.1" xmlns="http://www.w3.org/2000/svg"><defs><style type="text/css"><![CDATA[
text {
	font-family: 'Minion 3', serif;
	font-variant-ligatures: none;
	font-size: 16px;
}
text.scale2 {
	dominant-baseline: hanging;
	text-anchor: middle;
}
text.scale10 {
	dominant-baseline: hanging;
	text-anchor: middle;
}
tspan.base {
	font-size: 16px;
}
tspan.exp {
	font-size: 16px;
}
text.tick2 {
	font-family: 'Source Code Pro', monospace;
	font-size: 14px;
	text-anchor: end;
	dominant-baseline: middle;
}
text.tick10 {
	font-size: 16px;
	text-anchor: start;
	dominant-baseline: middle;
}
line.edge {
	stroke-width: 2px;
	stroke: black;
}
path.lightedge2, path.lightedge10 {
	stroke-width: 0.5px;
	fill: none;
}
path.lightedge2 {
	stroke: #aaffaa;
}
path.lightedge10 {
	stroke: #aaffff;
}
line.tick {
	stroke-width: 0.5px;
	stroke: black;
}
line.mtick {
	stroke-width: 1px;
	stroke: black;
}
rect.base2 {
	fill: #e9ffe9;
}
rect.base10 {
	fill: #e9ffff;
}
rect.range2 {
	fill: #e9ffe9;
}
line.range2 {
	stroke: #aaffaa;
	stroke-width: 1px;
}
line.dotted {
	stroke: #444;
	stroke-dasharray: 1;
	stroke-width: 1px;
}
]]></style>
<clipPath id="clip1"><rect x="5" y="5" width="55" height="200" class=""></rect>
</clipPath>
<clipPath id="clip2"><rect x="70" y="5" width="55" height="200" class=""></rect>
</clipPath>
<clipPath id="clip3"><rect x="135" y="5" width="55" height="200" class=""></rect>
</clipPath>
<clipPath id="clip4"><rect x="200" y="5" width="55" height="200" class=""></rect>
</clipPath>
<clipPath id="clip5"><rect x="265" y="5" width="40" height="200" class=""></rect>
</clipPath>
<clipPath id="clip6"><rect x="315" y="5" width="40" height="200" class=""></rect>
</clipPath>
<clipPath id="clip7"><rect x="365" y="5" width="40" height="200" class=""></rect>
</clipPath>
</defs><rect x="5" y="5" width="55" height="200" class="base2"></rect>
<g clip-path="url(#clip1)"><text x="48" y="188.833" class="tick2">0x0</text>
<text x="48" y="22.167" class="tick2">0x1</text>
<line x1="55" y1="355" x2="60" y2="355" class="tick"></line>
<line x1="55" y1="188.333" x2="60" y2="188.333" class="tick"></line>
<line x1="55" y1="21.667" x2="60" y2="21.667" class="tick"></line>
<line x1="55" y1="-145" x2="60" y2="-145" class="tick"></line>
<line x1="50" y1="188.333" x2="60" y2="188.333" class="mtick"></line>
<line x1="50" y1="21.667" x2="60" y2="21.667" class="mtick"></line>
</g><path class="lightedge2" d="M60 5 L5 5 L5 205 L60 205"></path><line x1="60" y1="5" x2="60" y2="205" class="edge"></line>
<text x="32.5" y="213" class="scale2"><tspan class="base">× 2</tspan><tspan class="exp" dx="0" dy="-0.4em">0</tspan></text>
<rect x="70" y="5" width="55" height="200" class="base2"></rect>
<g clip-path="url(#clip2)"><text x="113" y="188.833" class="tick2">0x0</text>
<text x="113" y="147.167" class="tick2">0x1</text>
<text x="113" y="105.5" class="tick2">0x2</text>
<text x="113" y="63.833" class="tick2">0x3</text>
<text x="113" y="22.167" class="tick2">0x4</text>
<line x1="120" y1="230" x2="125" y2="230" class="tick"></line>
<line x1="120" y1="188.333" x2="125" y2="188.333" class="tick"></line>
<line x1="120" y1="146.667" x2="125" y2="146.667" class="tick"></line>
<line x1="120" y1="105" x2="125" y2="105" class="tick"></line>
<line x1="120" y1="63.333" x2="125" y2="63.333" class="tick"></line>
<line x1="120" y1="21.667" x2="125" y2="21.667" class="tick"></line>
<line x1="120" y1="-20" x2="125" y2="-20" class="tick"></line>
<line x1="115" y1="188.333" x2="125" y2="188.333" class="mtick"></line>
<line x1="115" y1="146.667" x2="125" y2="146.667" class="mtick"></line>
<line x1="115" y1="105" x2="125" y2="105" class="mtick"></line>
<line x1="115" y1="63.333" x2="125" y2="63.333" class="mtick"></line>
<line x1="115" y1="21.667" x2="125" y2="21.667" class="mtick"></line>
</g><path class="lightedge2" d="M125 5 L70 5 L70 205 L125 205"></path><line x1="125" y1="5" x2="125" y2="205" class="edge"></line>
<text x="97.5" y="213" class="scale2"><tspan class="base">× 2</tspan><tspan class="exp" dx="0" dy="-0.4em">−2</tspan></text>
<rect x="135" y="5" width="55" height="200" class="base2"></rect>
<g clip-path="url(#clip3)"><text x="178" y="188.833" class="tick2">0x0</text>
<text x="178" y="168" class="tick2">0x2</text>
<text x="178" y="147.167" class="tick2">0x4</text>
<text x="178" y="126.333" class="tick2">0x6</text>
<text x="178" y="105.5" class="tick2">0x8</text>
<text x="178" y="84.667" class="tick2">0xa</text>
<text x="178" y="63.833" class="tick2">0xc</text>
<text x="178" y="43" class="tick2">0xe</text>
<text x="178" y="22.167" class="tick2">0x10</text>
<line x1="185" y1="209.167" x2="190" y2="209.167" class="tick"></line>
<line x1="185" y1="198.75" x2="190" y2="198.75" class="tick"></line>
<line x1="185" y1="188.333" x2="190" y2="188.333" class="tick"></line>
<line x1="185" y1="177.917" x2="190" y2="177.917" class="tick"></line>
<line x1="185" y1="167.5" x2="190" y2="167.5" class="tick"></line>
<line x1="185" y1="157.083" x2="190" y2="157.083" class="tick"></line>
<line x1="185" y1="146.667" x2="190" y2="146.667" class="tick"></line>
<line x1="185" y1="136.25" x2="190" y2="136.25" class="tick"></line>
<line x1="185" y1="125.833" x2="190" y2="125.833" class="tick"></line>
<line x1="185" y1="115.417" x2="190" y2="115.417" class="tick"></line>
<line x1="185" y1="105" x2="190" y2="105" class="tick"></line>
<line x1="185" y1="94.583" x2="190" y2="94.583" class="tick"></line>
<line x1="185" y1="84.167" x2="190" y2="84.167" class="tick"></line>
<line x1="185" y1="73.75" x2="190" y2="73.75" class="tick"></line>
<line x1="185" y1="63.333" x2="190" y2="63.333" class="tick"></line>
<line x1="185" y1="52.917" x2="190" y2="52.917" class="tick"></line>
<line x1="185" y1="42.5" x2="190" y2="42.5" class="tick"></line>
<line x1="185" y1="32.083" x2="190" y2="32.083" class="tick"></line>
<line x1="185" y1="21.667" x2="190" y2="21.667" class="tick"></line>
<line x1="185" y1="11.25" x2="190" y2="11.25" class="tick"></line>
<line x1="185" y1="0.833" x2="190" y2="0.833" class="tick"></line>
<line x1="180" y1="188.333" x2="190" y2="188.333" class="mtick"></line>
<line x1="180" y1="167.5" x2="190" y2="167.5" class="mtick"></line>
<line x1="180" y1="146.667" x2="190" y2="146.667" class="mtick"></line>
<line x1="180" y1="125.833" x2="190" y2="125.833" class="mtick"></line>
<line x1="180" y1="105" x2="190" y2="105" class="mtick"></line>
<line x1="180" y1="84.167" x2="190" y2="84.167" class="mtick"></line>
<line x1="180" y1="63.333" x2="190" y2="63.333" class="mtick"></line>
<line x1="180" y1="42.5" x2="190" y2="42.5" class="mtick"></line>
<line x1="180" y1="21.667" x2="190" y2="21.667" class="mtick"></line>
</g><path class="lightedge2" d="M190 5 L135 5 L135 205 L190 205"></path><line x1="190" y1="5" x2="190" y2="205" class="edge"></line>
<text x="162.5" y="213" class="scale2"><tspan class="base">× 2</tspan><tspan class="exp" dx="0" dy="-0.4em">−4</tspan></text>
<rect x="200" y="5" width="55" height="200" class="base2"></rect>
<g clip-path="url(#clip4)"><text x="243" y="188.833" class="tick2">0x0</text>
<text x="243" y="168" class="tick2">0x8</text>
<text x="243" y="147.167" class="tick2">0x10</text>
<text x="243" y="126.333" class="tick2">0x18</text>
<text x="243" y="105.5" class="tick2">0x20</text>
<text x="243" y="84.667" class="tick2">0x28</text>
<text x="243" y="63.833" class="tick2">0x30</text>
<text x="243" y="43" class="tick2">0x38</text>
<text x="243" y="22.167" class="tick2">0x40</text>
<line x1="250" y1="206.563" x2="255" y2="206.563" class="tick"></line>
<line x1="250" y1="203.958" x2="255" y2="203.958" class="tick"></line>
<line x1="250" y1="201.354" x2="255" y2="201.354" class="tick"></line>
<line x1="250" y1="198.75" x2="255" y2="198.75" class="tick"></line>
<line x1="250" y1="196.146" x2="255" y2="196.146" class="tick"></line>
<line x1="250" y1="193.542" x2="255" y2="193.542" class="tick"></line>
<line x1="250" y1="190.938" x2="255" y2="190.938" class="tick"></line>
<line x1="250" y1="188.333" x2="255" y2="188.333" class="tick"></line>
<line x1="250" y1="185.729" x2="255" y2="185.729" class="tick"></line>
<line x1="250" y1="183.125" x2="255" y2="183.125" class="tick"></line>
<line x1="250" y1="180.521" x2="255" y2="180.521" class="tick"></line>
<line x1="250" y1="177.917" x2="255" y2="177.917" class="tick"></line>
<line x1="250" y1="175.313" x2="255" y2="175.313" class="tick"></line>
<line x1="250" y1="172.708" x2="255" y2="172.708" class="tick"></line>
<line x1="250" y1="170.104" x2="255" y2="170.104" class="tick"></line>
<line x1="250" y1="167.5" x2="255" y2="167.5" class="tick"></line>
<line x1="250" y1="164.896" x2="255" y2="164.896" class="tick"></line>
<line x1="250" y1="162.292" x2="255" y2="162.292" class="tick"></line>
<line x1="250" y1="159.688" x2="255" y2="159.688" class="tick"></line>
<line x1="250" y1="157.083" x2="255" y2="157.083" class="tick"></line>
<line x1="250" y1="154.479" x2="255" y2="154.479" class="tick"></line>
<line x1="250" y1="151.875" x2="255" y2="151.875" class="tick"></line>
<line x1="250" y1="149.271" x2="255" y2="149.271" class="tick"></line>
<line x1="250" y1="146.667" x2="255" y2="146.667" class="tick"></line>
<line x1="250" y1="144.063" x2="255" y2="144.063" class="tick"></line>
<line x1="250" y1="141.458" x2="255" y2="141.458" class="tick"></line>
<line x1="250" y1="138.854" x2="255" y2="138.854" class="tick"></line>
<line x1="250" y1="136.25" x2="255" y2="136.25" class="tick"></line>
<line x1="250" y1="133.646" x2="255" y2="133.646" class="tick"></line>
<line x1="250" y1="131.042" x2="255" y2="131.042" class="tick"></line>
<line x1="250" y1="128.438" x2="255" y2="128.438" class="tick"></line>
<line x1="250" y1="125.833" x2="255" y2="125.833" class="tick"></line>
<line x1="250" y1="123.229" x2="255" y2="123.229" class="tick"></line>
<line x1="250" y1="120.625" x2="255" y2="120.625" class="tick"></line>
<line x1="250" y1="118.021" x2="255" y2="118.021" class="tick"></line>
<line x1="250" y1="115.417" x2="255" y2="115.417" class="tick"></line>
<line x1="250" y1="112.813" x2="255" y2="112.813" class="tick"></line>
<line x1="250" y1="110.208" x2="255" y2="110.208" class="tick"></line>
<line x1="250" y1="107.604" x2="255" y2="107.604" class="tick"></line>
<line x1="250" y1="105" x2="255" y2="105" class="tick"></line>
<line x1="250" y1="102.396" x2="255" y2="102.396" class="tick"></line>
<line x1="250" y1="99.792" x2="255" y2="99.792" class="tick"></line>
<line x1="250" y1="97.188" x2="255" y2="97.188" class="tick"></line>
<line x1="250" y1="94.583" x2="255" y2="94.583" class="tick"></line>
<line x1="250" y1="91.979" x2="255" y2="91.979" class="tick"></line>
<line x1="250" y1="89.375" x2="255" y2="89.375" class="tick"></line>
<line x1="250" y1="86.771" x2="255" y2="86.771" class="tick"></line>
<line x1="250" y1="84.167" x2="255" y2="84.167" class="tick"></line>
<line x1="250" y1="81.563" x2="255" y2="81.563" class="tick"></line>
<line x1="250" y1="78.958" x2="255" y2="78.958" class="tick"></line>
<line x1="250" y1="76.354" x2="255" y2="76.354" class="tick"></line>
<line x1="250" y1="73.75" x2="255" y2="73.75" class="tick"></line>
<line x1="250" y1="71.146" x2="255" y2="71.146" class="tick"></line>
<line x1="250" y1="68.542" x2="255" y2="68.542" class="tick"></line>
<line x1="250" y1="65.938" x2="255" y2="65.938" class="tick"></line>
<line x1="250" y1="63.333" x2="255" y2="63.333" class="tick"></line>
<line x1="250" y1="60.729" x2="255" y2="60.729" class="tick"></line>
<line x1="250" y1="58.125" x2="255" y2="58.125" class="tick"></line>
<line x1="250" y1="55.521" x2="255" y2="55.521" class="tick"></line>
<line x1="250" y1="52.917" x2="255" y2="52.917" class="tick"></line>
<line x1="250" y1="50.313" x2="255" y2="50.313" class="tick"></line>
<line x1="250" y1="47.708" x2="255" y2="47.708" class="tick"></line>
<line x1="250" y1="45.104" x2="255" y2="45.104" class="tick"></line>
<line x1="250" y1="42.5" x2="255" y2="42.5" class="tick"></line>
<line x1="250" y1="39.896" x2="255" y2="39.896" class="tick"></line>
<line x1="250" y1="37.292" x2="255" y2="37.292" class="tick"></line>
<line x1="250" y1="34.688" x2="255" y2="34.688" class="tick"></line>
<line x1="250" y1="32.083" x2="255" y2="32.083" class="tick"></line>
<line x1="250" y1="29.479" x2="255" y2="29.479" class="tick"></line>
<line x1="250" y1="26.875" x2="255" y2="26.875" class="tick"></line>
<line x1="250" y1="24.271" x2="255" y2="24.271" class="tick"></line>
<line x1="250" y1="21.667" x2="255" y2="21.667" class="tick"></line>
<line x1="250" y1="19.063" x2="255" y2="19.063" class="tick"></line>
<line x1="250" y1="16.458" x2="255" y2="16.458" class="tick"></line>
<line x1="250" y1="13.854" x2="255" y2="13.854" class="tick"></line>
<line x1="250" y1="11.25" x2="255" y2="11.25" class="tick"></line>
<line x1="250" y1="8.646" x2="255" y2="8.646" class="tick"></line>
<line x1="250" y1="6.042" x2="255" y2="6.042" class="tick"></line>
<line x1="250" y1="3.438" x2="255" y2="3.438" class="tick"></line>
<line x1="245" y1="188.333" x2="255" y2="188.333" class="mtick"></line>
<line x1="245" y1="167.5" x2="255" y2="167.5" class="mtick"></line>
<line x1="245" y1="146.667" x2="255" y2="146.667" class="mtick"></line>
<line x1="245" y1="125.833" x2="255" y2="125.833" class="mtick"></line>
<line x1="245" y1="105" x2="255" y2="105" class="mtick"></line>
<line x1="245" y1="84.167" x2="255" y2="84.167" class="mtick"></line>
<line x1="245" y1="63.333" x2="255" y2="63.333" class="mtick"></line>
<line x1="245" y1="42.5" x2="255" y2="42.5" class="mtick"></line>
<line x1="245" y1="21.667" x2="255" y2="21.667" class="mtick"></line>
</g><path class="lightedge2" d="M255 5 L200 5 L200 205 L255 205"></path><line x1="255" y1="5" x2="255" y2="205" class="edge"></line>
<text x="227.5" y="213" class="scale2"><tspan class="base">× 2</tspan><tspan class="exp" dx="0" dy="-0.4em">−6</tspan></text>
<rect x="265" y="5" width="40" height="200" class="base10"></rect>
<g clip-path="url(#clip5)"><text x="277" y="188.833" class="tick10">0</text>
<text x="277" y="155.5" class="tick10">20</text>
<text x="277" y="122.167" class="tick10">40</text>
<text x="277" y="88.833" class="tick10">60</text>
<text x="277" y="55.5" class="tick10">80</text>
<text x="277" y="22.167" class="tick10">100</text>
<line x1="265" y1="206.667" x2="270" y2="206.667" class="tick"></line>
<line x1="265" y1="205" x2="270" y2="205" class="tick"></line>
<line x1="265" y1="203.333" x2="270" y2="203.333" class="tick"></line>
<line x1="265" y1="201.667" x2="270" y2="201.667" class="tick"></line>
<line x1="265" y1="200" x2="270" y2="200" class="tick"></line>
<line x1="265" y1="198.333" x2="270" y2="198.333" class="tick"></line>
<line x1="265" y1="196.667" x2="270" y2="196.667" class="tick"></line>
<line x1="265" y1="195" x2="270" y2="195" class="tick"></line>
<line x1="265" y1="193.333" x2="270" y2="193.333" class="tick"></line>
<line x1="265" y1="191.667" x2="270" y2="191.667" class="tick"></line>
<line x1="265" y1="190" x2="270" y2="190" class="tick"></line>
<line x1="265" y1="188.333" x2="270" y2="188.333" class="tick"></line>
<line x1="265" y1="186.667" x2="270" y2="186.667" class="tick"></line>
<line x1="265" y1="185" x2="270" y2="185" class="tick"></line>
<line x1="265" y1="183.333" x2="270" y2="183.333" class="tick"></line>
<line x1="265" y1="181.667" x2="270" y2="181.667" class="tick"></line>
<line x1="265" y1="180" x2="270" y2="180" class="tick"></line>
<line x1="265" y1="178.333" x2="270" y2="178.333" class="tick"></line>
<line x1="265" y1="176.667" x2="270" y2="176.667" class="tick"></line>
<line x1="265" y1="175" x2="270" y2="175" class="tick"></line>
<line x1="265" y1="173.333" x2="270" y2="173.333" class="tick"></line>
<line x1="265" y1="171.667" x2="270" y2="171.667" class="tick"></line>
<line x1="265" y1="170" x2="270" y2="170" class="tick"></line>
<line x1="265" y1="168.333" x2="270" y2="168.333" class="tick"></line>
<line x1="265" y1="166.667" x2="270" y2="166.667" class="tick"></line>
<line x1="265" y1="165" x2="270" y2="165" class="tick"></line>
<line x1="265" y1="163.333" x2="270" y2="163.333" class="tick"></line>
<line x1="265" y1="161.667" x2="270" y2="161.667" class="tick"></line>
<line x1="265" y1="160" x2="270" y2="160" class="tick"></line>
<line x1="265" y1="158.333" x2="270" y2="158.333" class="tick"></line>
<line x1="265" y1="156.667" x2="270" y2="156.667" class="tick"></line>
<line x1="265" y1="155" x2="270" y2="155" class="tick"></line>
<line x1="265" y1="153.333" x2="270" y2="153.333" class="tick"></line>
<line x1="265" y1="151.667" x2="270" y2="151.667" class="tick"></line>
<line x1="265" y1="150" x2="270" y2="150" class="tick"></line>
<line x1="265" y1="148.333" x2="270" y2="148.333" class="tick"></line>
<line x1="265" y1="146.667" x2="270" y2="146.667" class="tick"></line>
<line x1="265" y1="145" x2="270" y2="145" class="tick"></line>
<line x1="265" y1="143.333" x2="270" y2="143.333" class="tick"></line>
<line x1="265" y1="141.667" x2="270" y2="141.667" class="tick"></line>
<line x1="265" y1="140" x2="270" y2="140" class="tick"></line>
<line x1="265" y1="138.333" x2="270" y2="138.333" class="tick"></line>
<line x1="265" y1="136.667" x2="270" y2="136.667" class="tick"></line>
<line x1="265" y1="135" x2="270" y2="135" class="tick"></line>
<line x1="265" y1="133.333" x2="270" y2="133.333" class="tick"></line>
<line x1="265" y1="131.667" x2="270" y2="131.667" class="tick"></line>
<line x1="265" y1="130" x2="270" y2="130" class="tick"></line>
<line x1="265" y1="128.333" x2="270" y2="128.333" class="tick"></line>
<line x1="265" y1="126.667" x2="270" y2="126.667" class="tick"></line>
<line x1="265" y1="125" x2="270" y2="125" class="tick"></line>
<line x1="265" y1="123.333" x2="270" y2="123.333" class="tick"></line>
<line x1="265" y1="121.667" x2="270" y2="121.667" class="tick"></line>
<line x1="265" y1="120" x2="270" y2="120" class="tick"></line>
<line x1="265" y1="118.333" x2="270" y2="118.333" class="tick"></line>
<line x1="265" y1="116.667" x2="270" y2="116.667" class="tick"></line>
<line x1="265" y1="115" x2="270" y2="115" class="tick"></line>
<line x1="265" y1="113.333" x2="270" y2="113.333" class="tick"></line>
<line x1="265" y1="111.667" x2="270" y2="111.667" class="tick"></line>
<line x1="265" y1="110" x2="270" y2="110" class="tick"></line>
<line x1="265" y1="108.333" x2="270" y2="108.333" class="tick"></line>
<line x1="265" y1="106.667" x2="270" y2="106.667" class="tick"></line>
<line x1="265" y1="105" x2="270" y2="105" class="tick"></line>
<line x1="265" y1="103.333" x2="270" y2="103.333" class="tick"></line>
<line x1="265" y1="101.667" x2="270" y2="101.667" class="tick"></line>
<line x1="265" y1="100" x2="270" y2="100" class="tick"></line>
<line x1="265" y1="98.333" x2="270" y2="98.333" class="tick"></line>
<line x1="265" y1="96.667" x2="270" y2="96.667" class="tick"></line>
<line x1="265" y1="95" x2="270" y2="95" class="tick"></line>
<line x1="265" y1="93.333" x2="270" y2="93.333" class="tick"></line>
<line x1="265" y1="91.667" x2="270" y2="91.667" class="tick"></line>
<line x1="265" y1="90" x2="270" y2="90" class="tick"></line>
<line x1="265" y1="88.333" x2="270" y2="88.333" class="tick"></line>
<line x1="265" y1="86.667" x2="270" y2="86.667" class="tick"></line>
<line x1="265" y1="85" x2="270" y2="85" class="tick"></line>
<line x1="265" y1="83.333" x2="270" y2="83.333" class="tick"></line>
<line x1="265" y1="81.667" x2="270" y2="81.667" class="tick"></line>
<line x1="265" y1="80" x2="270" y2="80" class="tick"></line>
<line x1="265" y1="78.333" x2="270" y2="78.333" class="tick"></line>
<line x1="265" y1="76.667" x2="270" y2="76.667" class="tick"></line>
<line x1="265" y1="75" x2="270" y2="75" class="tick"></line>
<line x1="265" y1="73.333" x2="270" y2="73.333" class="tick"></line>
<line x1="265" y1="71.667" x2="270" y2="71.667" class="tick"></line>
<line x1="265" y1="70" x2="270" y2="70" class="tick"></line>
<line x1="265" y1="68.333" x2="270" y2="68.333" class="tick"></line>
<line x1="265" y1="66.667" x2="270" y2="66.667" class="tick"></line>
<line x1="265" y1="65" x2="270" y2="65" class="tick"></line>
<line x1="265" y1="63.333" x2="270" y2="63.333" class="tick"></line>
<line x1="265" y1="61.667" x2="270" y2="61.667" class="tick"></line>
<line x1="265" y1="60" x2="270" y2="60" class="tick"></line>
<line x1="265" y1="58.333" x2="270" y2="58.333" class="tick"></line>
<line x1="265" y1="56.667" x2="270" y2="56.667" class="tick"></line>
<line x1="265" y1="55" x2="270" y2="55" class="tick"></line>
<line x1="265" y1="53.333" x2="270" y2="53.333" class="tick"></line>
<line x1="265" y1="51.667" x2="270" y2="51.667" class="tick"></line>
<line x1="265" y1="50" x2="270" y2="50" class="tick"></line>
<line x1="265" y1="48.333" x2="270" y2="48.333" class="tick"></line>
<line x1="265" y1="46.667" x2="270" y2="46.667" class="tick"></line>
<line x1="265" y1="45" x2="270" y2="45" class="tick"></line>
<line x1="265" y1="43.333" x2="270" y2="43.333" class="tick"></line>
<line x1="265" y1="41.667" x2="270" y2="41.667" class="tick"></line>
<line x1="265" y1="40" x2="270" y2="40" class="tick"></line>
<line x1="265" y1="38.333" x2="270" y2="38.333" class="tick"></line>
<line x1="265" y1="36.667" x2="270" y2="36.667" class="tick"></line>
<line x1="265" y1="35" x2="270" y2="35" class="tick"></line>
<line x1="265" y1="33.333" x2="270" y2="33.333" class="tick"></line>
<line x1="265" y1="31.667" x2="270" y2="31.667" class="tick"></line>
<line x1="265" y1="30" x2="270" y2="30" class="tick"></line>
<line x1="265" y1="28.333" x2="270" y2="28.333" class="tick"></line>
<line x1="265" y1="26.667" x2="270" y2="26.667" class="tick"></line>
<line x1="265" y1="25" x2="270" y2="25" class="tick"></line>
<line x1="265" y1="23.333" x2="270" y2="23.333" class="tick"></line>
<line x1="265" y1="21.667" x2="270" y2="21.667" class="tick"></line>
<line x1="265" y1="20" x2="270" y2="20" class="tick"></line>
<line x1="265" y1="18.333" x2="270" y2="18.333" class="tick"></line>
<line x1="265" y1="16.667" x2="270" y2="16.667" class="tick"></line>
<line x1="265" y1="15" x2="270" y2="15" class="tick"></line>
<line x1="265" y1="13.333" x2="270" y2="13.333" class="tick"></line>
<line x1="265" y1="11.667" x2="270" y2="11.667" class="tick"></line>
<line x1="265" y1="10" x2="270" y2="10" class="tick"></line>
<line x1="265" y1="8.333" x2="270" y2="8.333" class="tick"></line>
<line x1="265" y1="6.667" x2="270" y2="6.667" class="tick"></line>
<line x1="265" y1="5" x2="270" y2="5" class="tick"></line>
<line x1="265" y1="3.333" x2="270" y2="3.333" class="tick"></line>
<line x1="265" y1="188.333" x2="275" y2="188.333" class="mtick"></line>
<line x1="265" y1="155" x2="275" y2="155" class="mtick"></line>
<line x1="265" y1="121.667" x2="275" y2="121.667" class="mtick"></line>
<line x1="265" y1="88.333" x2="275" y2="88.333" class="mtick"></line>
<line x1="265" y1="55" x2="275" y2="55" class="mtick"></line>
<line x1="265" y1="21.667" x2="275" y2="21.667" class="mtick"></line>
</g><path class="lightedge10" d="M265 5 L305 5 L305 205 L265 205"></path><line x1="265" y1="5" x2="265" y2="205" class="edge"></line>
<text x="285" y="213" class="scale10"><tspan class="base">× 10</tspan><tspan class="exp" dx="0" dy="-0.4em">−2</tspan></text>
<rect x="315" y="5" width="40" height="200" class="base10"></rect>
<g clip-path="url(#clip6)"><text x="327" y="188.833" class="tick10">0</text>
<text x="327" y="155.5" class="tick10">2</text>
<text x="327" y="122.167" class="tick10">4</text>
<text x="327" y="88.833" class="tick10">6</text>
<text x="327" y="55.5" class="tick10">8</text>
<text x="327" y="22.167" class="tick10">10</text>
<line x1="315" y1="221.667" x2="320" y2="221.667" class="tick"></line>
<line x1="315" y1="205" x2="320" y2="205" class="tick"></line>
<line x1="315" y1="188.333" x2="320" y2="188.333" class="tick"></line>
<line x1="315" y1="171.667" x2="320" y2="171.667" class="tick"></line>
<line x1="315" y1="155" x2="320" y2="155" class="tick"></line>
<line x1="315" y1="138.333" x2="320" y2="138.333" class="tick"></line>
<line x1="315" y1="121.667" x2="320" y2="121.667" class="tick"></line>
<line x1="315" y1="105" x2="320" y2="105" class="tick"></line>
<line x1="315" y1="88.333" x2="320" y2="88.333" class="tick"></line>
<line x1="315" y1="71.667" x2="320" y2="71.667" class="tick"></line>
<line x1="315" y1="55" x2="320" y2="55" class="tick"></line>
<line x1="315" y1="38.333" x2="320" y2="38.333" class="tick"></line>
<line x1="315" y1="21.667" x2="320" y2="21.667" class="tick"></line>
<line x1="315" y1="5" x2="320" y2="5" class="tick"></line>
<line x1="315" y1="-11.667" x2="320" y2="-11.667" class="tick"></line>
<line x1="315" y1="188.333" x2="325" y2="188.333" class="mtick"></line>
<line x1="315" y1="155" x2="325" y2="155" class="mtick"></line>
<line x1="315" y1="121.667" x2="325" y2="121.667" class="mtick"></line>
<line x1="315" y1="88.333" x2="325" y2="88.333" class="mtick"></line>
<line x1="315" y1="55" x2="325" y2="55" class="mtick"></line>
<line x1="315" y1="21.667" x2="325" y2="21.667" class="mtick"></line>
</g><path class="lightedge10" d="M315 5 L355 5 L355 205 L315 205"></path><line x1="315" y1="5" x2="315" y2="205" class="edge"></line>
<text x="335" y="213" class="scale10"><tspan class="base">× 10</tspan><tspan class="exp" dx="0" dy="-0.4em">−1</tspan></text>
<rect x="365" y="5" width="40" height="200" class="base10"></rect>
<g clip-path="url(#clip7)"><text x="377" y="188.833" class="tick10">0</text>
<text x="377" y="22.167" class="tick10">1</text>
<line x1="365" y1="355" x2="370" y2="355" class="tick"></line>
<line x1="365" y1="188.333" x2="370" y2="188.333" class="tick"></line>
<line x1="365" y1="21.667" x2="370" y2="21.667" class="tick"></line>
<line x1="365" y1="-145" x2="370" y2="-145" class="tick"></line>
<line x1="365" y1="188.333" x2="375" y2="188.333" class="mtick"></line>
<line x1="365" y1="21.667" x2="375" y2="21.667" class="mtick"></line>
</g><path class="lightedge10" d="M365 5 L405 5 L405 205 L365 205"></path><line x1="365" y1="5" x2="365" y2="205" class="edge"></line>
<text x="385" y="213" class="scale10"><tspan class="base">× 10</tspan><tspan class="exp" dx="0" dy="-0.4em">0</tspan></text>
</svg>
